<?xml version="1.0" encoding="UTF-8" standalone="no"?>
<!-- Created with Inkscape (http://www.inkscape.org/) -->

<svg
   version="1.1"
   id="svg1"
   width="1588"
   height="1363"
   viewBox="0 0 1588 1363"
   sodipodi:docname="proxy logo.svg"
   inkscape:version="1.4.3 (0d15f75, 2025-12-25)"
   xmlns:inkscape="http://www.inkscape.org/namespaces/inkscape"
   xmlns:sodipodi="http://sodipodi.sourceforge.net/DTD/sodipodi-0.dtd"
   xmlns:xlink="http://www.w3.org/1999/xlink"
   xmlns="http://www.w3.org/2000/svg"
   xmlns:svg="http://www.w3.org/2000/svg">
  <defs
     id="defs1" />
  <sodipodi:namedview
     id="namedview1"
     pagecolor="#ffffff"
     bordercolor="#000000"
     borderopacity="0.25"
     inkscape:showpageshadow="2"
     inkscape:pageopacity="0.0"
     inkscape:pagecheckerboard="0"
     inkscape:deskcolor="#d1d1d1"
     inkscape:zoom="0.47079927"
     inkscape:cx="978.12386"
     inkscape:cy="685.00531"
     inkscape:window-width="3840"
     inkscape:window-height="2054"
     inkscape:window-x="1909"
     inkscape:window-y="-11"
     inkscape:window-maximized="1"
     inkscape:current-layer="g2" />
  <g
     inkscape:groupmode="layer"
     inkscape:label="Image"
     id="g1">
    <g
       id="g2"
       transform="translate(-40.3569,8.4961901)">
      <path
         style="fill:#e1e1e1;fill-opacity:1"
         d="m 1429.4371,199.75 -2.9371,-3.25 3.25,2.93709 c 3.0295,2.73778 3.7097,3.56291 2.9371,3.56291 -0.1721,0 -1.6346,-1.4625 -3.25,-3.25 z m -9.4713,-9.5 -5.4658,-5.75 5.75,5.46584 c 5.3419,5.07794 6.2081,6.03416 5.4658,6.03416 -0.1562,0 -2.7437,-2.5875 -5.75,-5.75 z m -8.0934,-8 c -1.2438,-1.58606 -1.2085,-1.62143 0.3776,-0.37756 1.6657,1.30637 2.1955,2.12756 1.3724,2.12756 -0.2076,0 -0.9951,-0.7875 -1.75,-1.75 z"
         id="path81" />
      <path
         style="fill:#dddddd;fill-opacity:1"
         d="m 1408.8724,179.25 c -1.2438,-1.58606 -1.2085,-1.62143 0.3776,-0.37756 1.6657,1.30637 2.1955,2.12756 1.3724,2.12756 -0.2076,0 -0.9951,-0.7875 -1.75,-1.75 z"
         id="path80" />
      <path
         style="fill:#d2d2d2;fill-opacity:1"
         d="m 1316,859.62244 c 0,-0.20765 0.7875,-0.99515 1.75,-1.75 1.5861,-1.24387 1.6214,-1.2085 0.3776,0.37756 -1.3064,1.66575 -2.1276,2.19548 -2.1276,1.37244 z"
         id="path79" />
      <path
         style="fill:#c2c2c2;fill-opacity:1"
         d="m 207.15789,1307 c 0,-1.375 0.22698,-1.9375 0.50439,-1.25 0.27741,0.6875 0.27741,1.8125 0,2.5 -0.27741,0.6875 -0.50439,0.125 -0.50439,-1.25 z"
         id="path78" />
      <path
         style="fill:#aeaeae;fill-opacity:1"
         d="m 1483.4547,366.5 c 3e-4,-21.45 0.1327,-30.0827 0.2943,-19.18378 0.1615,10.89892 0.1613,28.44892 -5e-4,39 -0.1619,10.55108 -0.2941,1.63378 -0.2938,-19.81622 z"
         id="path77" />
      <path
         style="fill:#9f9f9f;fill-opacity:1"
         d="m 1310,865.62244 c 0,-0.20765 0.7875,-0.99515 1.75,-1.75 1.5861,-1.24387 1.6214,-1.2085 0.3776,0.37756 -1.3064,1.66575 -2.1276,2.19548 -2.1276,1.37244 z"
         id="path76" />
      <path
         style="fill:#969696;fill-opacity:1"
         d="m 1385.0789,155.41667 c 0.048,-1.16495 0.285,-1.4019 0.6042,-0.60417 0.2889,0.72187 0.2534,1.58437 -0.079,1.91667 -0.3323,0.33229 -0.5687,-0.25834 -0.5253,-1.3125 z"
         id="path75" />
      <path
         style="fill:#949494;fill-opacity:1"
         d="m 1306,869.62244 c 0,-0.20765 0.7875,-0.99515 1.75,-1.75 1.5861,-1.24387 1.6214,-1.2085 0.3776,0.37756 -1.3064,1.66575 -2.1276,2.19548 -2.1276,1.37244 z"
         id="path74" />
      <path
         style="fill:#868686;fill-opacity:1"
         d="m 965.75,105.2766 c 1.7875,-0.22182 4.7125,-0.22182 6.5,0 1.7875,0.22183 0.325,0.40333 -3.25,0.40333 -3.575,0 -5.0375,-0.1815 -3.25,-0.40333 z m 11.0625,0.0403 c 0.72187,-0.28887 1.58438,-0.25335 1.91667,0.0789 0.33229,0.3323 -0.25834,0.56864 -1.3125,0.52522 -1.16495,-0.048 -1.4019,-0.28494 -0.60417,-0.60416 z M 469.75,104.2766 c 1.7875,-0.22182 4.7125,-0.22182 6.5,0 1.7875,0.22183 0.325,0.40333 -3.25,0.40333 -3.575,0 -5.0375,-0.1815 -3.25,-0.40333 z m 11.51903,0.0304 c 0.97297,-0.25354 2.32297,-0.23687 3,0.037 0.67703,0.27393 -0.11903,0.48137 -1.76903,0.46099 -1.65,-0.0204 -2.20394,-0.2445 -1.23097,-0.49804 z"
         id="path69" />
      <path
         style="fill:#848484;fill-opacity:1"
         d="m 939.25,105.31067 c 0.9625,-0.25152 2.5375,-0.25152 3.5,0 0.9625,0.25153 0.175,0.45733 -1.75,0.45733 -1.925,0 -2.7125,-0.2058 -1.75,-0.45733 z m 6.5625,0.006 c 0.72187,-0.28887 1.58438,-0.25335 1.91667,0.0789 0.33229,0.3323 -0.25834,0.56864 -1.3125,0.52522 -1.16495,-0.048 -1.4019,-0.28494 -0.60417,-0.60416 z m -496.05084,-1.02415 c 1.24391,-0.23919 3.04391,-0.23011 4,0.0202 0.95609,0.25029 -0.0617,0.446 -2.26166,0.4349 -2.2,-0.0111 -2.98225,-0.21589 -1.73834,-0.45508 z"
         id="path67" />
      <path
         style="fill:#828282;fill-opacity:1"
         d="m 929.76791,105.27527 c 1.79735,-0.22256 4.49735,-0.21797 6,0.0102 1.50265,0.22818 0.0321,0.41027 -3.26791,0.40466 -3.3,-0.006 -4.52944,-0.1923 -2.73209,-0.41486 z"
         id="path66" />
      <path
         style="fill:#818181;fill-opacity:1"
         d="m 915.75,105.33772 c 0.6875,-0.27741 1.8125,-0.27741 2.5,0 0.6875,0.27741 0.125,0.50439 -1.25,0.50439 -1.375,0 -1.9375,-0.22698 -1.25,-0.50439 z m 6.01166,-0.045 c 1.24391,-0.23919 3.04391,-0.23011 4,0.0202 0.95609,0.25029 -0.0617,0.446 -2.26166,0.4349 -2.2,-0.0111 -2.98225,-0.21589 -1.73834,-0.45508 z"
         id="path65" />
      <path
         style="fill:#808080;fill-opacity:1"
         d="m 905.75,105.2766 c 1.7875,-0.22182 4.7125,-0.22182 6.5,0 1.7875,0.22183 0.325,0.40333 -3.25,0.40333 -3.575,0 -5.0375,-0.1815 -3.25,-0.40333 z"
         id="path64" />
      <path
         style="fill:#7f7f7f;fill-opacity:1"
         d="m 897.75,105.33772 c 0.6875,-0.27741 1.8125,-0.27741 2.5,0 0.6875,0.27741 0.125,0.50439 -1.25,0.50439 -1.375,0 -1.9375,-0.22698 -1.25,-0.50439 z"
         id="path63" />
      <path
         style="fill:#7d7d7d;fill-opacity:1"
         d="m 1429.405,200.75 -1.905,-2.25 2.25,1.90499 c 2.1144,1.79022 2.7052,2.59501 1.905,2.59501 -0.1898,0 -1.2023,-1.0125 -2.25,-2.25 z M 887.76166,105.29274 c 1.24391,-0.23919 3.04391,-0.23011 4,0.0202 0.95609,0.25029 -0.0617,0.446 -2.26166,0.4349 -2.2,-0.0111 -2.98225,-0.21589 -1.73834,-0.45508 z"
         id="path62" />
      <path
         style="fill:#7c7c7c;fill-opacity:1"
         d="m 876.75,105.33772 c 0.6875,-0.27741 1.8125,-0.27741 2.5,0 0.6875,0.27741 0.125,0.50439 -1.25,0.50439 -1.375,0 -1.9375,-0.22698 -1.25,-0.50439 z"
         id="path61" />
      <path
         style="fill:#7b7b7b;fill-opacity:1"
         d="m 869.75,105.29427 c 1.2375,-0.23836 3.2625,-0.23836 4.5,0 1.2375,0.23835 0.225,0.43337 -2.25,0.43337 -2.475,0 -3.4875,-0.19502 -2.25,-0.43337 z"
         id="path60" />
      <path
         style="fill:#7a7a7a;fill-opacity:1"
         d="m 860.76166,105.29274 c 1.24391,-0.23919 3.04391,-0.23011 4,0.0202 0.95609,0.25029 -0.0617,0.446 -2.26166,0.4349 -2.2,-0.0111 -2.98225,-0.21589 -1.73834,-0.45508 z"
         id="path59" />
      <path
         style="fill:#787878;fill-opacity:1"
         d="m 852.75,105.33772 c 0.6875,-0.27741 1.8125,-0.27741 2.5,0 0.6875,0.27741 0.125,0.50439 -1.25,0.50439 -1.375,0 -1.9375,-0.22698 -1.25,-0.50439 z"
         id="path58" />
      <path
         style="fill:#777777;fill-opacity:1"
         d="m 845.75,105.33772 c 0.6875,-0.27741 1.8125,-0.27741 2.5,0 0.6875,0.27741 0.125,0.50439 -1.25,0.50439 -1.375,0 -1.9375,-0.22698 -1.25,-0.50439 z"
         id="path57" />
      <path
         style="fill:#767676;fill-opacity:1"
         d="m 839.75,105.33772 c 0.6875,-0.27741 1.8125,-0.27741 2.5,0 0.6875,0.27741 0.125,0.50439 -1.25,0.50439 -1.375,0 -1.9375,-0.22698 -1.25,-0.50439 z m 339.0625,-23.020834 c 0.7219,-0.288871 1.5844,-0.253344 1.9167,0.07895 0.3323,0.332292 -0.2584,0.568641 -1.3125,0.52522 -1.165,-0.04798 -1.4019,-0.284941 -0.6042,-0.604167 z"
         id="path56" />
      <path
         style="fill:#757575;fill-opacity:1"
         d="m 830.75,105.29427 c 1.2375,-0.23836 3.2625,-0.23836 4.5,0 1.2375,0.23835 0.225,0.43337 -2.25,0.43337 -2.475,0 -3.4875,-0.19502 -2.25,-0.43337 z m 320.0625,-23.977384 c 0.7219,-0.288871 1.5844,-0.253344 1.9167,0.07895 0.3323,0.332292 -0.2584,0.568641 -1.3125,0.52522 -1.165,-0.04798 -1.4019,-0.284941 -0.6042,-0.604167 z"
         id="path55" />
      <path
         style="fill:#737373;fill-opacity:1"
         d="m 822.75,105.29427 c 1.2375,-0.23836 3.2625,-0.23836 4.5,0 1.2375,0.23835 0.225,0.43337 -2.25,0.43337 -2.475,0 -3.4875,-0.19502 -2.25,-0.43337 z"
         id="path54" />
      <path
         style="fill:#727272;fill-opacity:1"
         d="m 815.75,105.33772 c 0.6875,-0.27741 1.8125,-0.27741 2.5,0 0.6875,0.27741 0.125,0.50439 -1.25,0.50439 -1.375,0 -1.9375,-0.22698 -1.25,-0.50439 z"
         id="path53" />
      <path
         style="fill:#717171;fill-opacity:1"
         d="m 809.76166,105.29274 c 1.24391,-0.23919 3.04391,-0.23011 4,0.0202 0.95609,0.25029 -0.0617,0.446 -2.26166,0.4349 -2.2,-0.0111 -2.98225,-0.21589 -1.73834,-0.45508 z"
         id="path52" />
      <path
         style="fill:#707070;fill-opacity:1"
         d="m 802.75,105.33772 c 0.6875,-0.27741 1.8125,-0.27741 2.5,0 0.6875,0.27741 0.125,0.50439 -1.25,0.50439 -1.375,0 -1.9375,-0.22698 -1.25,-0.50439 z"
         id="path51" />
      <path
         style="fill:#6e6e6e;fill-opacity:1"
         d="m 796.75,105.33772 c 0.6875,-0.27741 1.8125,-0.27741 2.5,0 0.6875,0.27741 0.125,0.50439 -1.25,0.50439 -1.375,0 -1.9375,-0.22698 -1.25,-0.50439 z"
         id="path50" />
      <path
         style="fill:#6d6d6d;fill-opacity:1"
         d="m 789.25,105.31067 c 0.9625,-0.25152 2.5375,-0.25152 3.5,0 0.9625,0.25153 0.175,0.45733 -1.75,0.45733 -1.925,0 -2.7125,-0.2058 -1.75,-0.45733 z"
         id="path49" />
      <path
         style="fill:#6c6c6c;fill-opacity:1"
         d="m 782.76166,105.29274 c 1.24391,-0.23919 3.04391,-0.23011 4,0.0202 0.95609,0.25029 -0.0617,0.446 -2.26166,0.4349 -2.2,-0.0111 -2.98225,-0.21589 -1.73834,-0.45508 z"
         id="path48" />
      <path
         style="fill:#6b6b6b;fill-opacity:1"
         d="m 776.25,105.31067 c 0.9625,-0.25152 2.5375,-0.25152 3.5,0 0.9625,0.25153 0.175,0.45733 -1.75,0.45733 -1.925,0 -2.7125,-0.2058 -1.75,-0.45733 z"
         id="path47" />
      <path
         style="fill:#696969;fill-opacity:1"
         d="m 771.75,105.33772 c 0.6875,-0.27741 1.8125,-0.27741 2.5,0 0.6875,0.27741 0.125,0.50439 -1.25,0.50439 -1.375,0 -1.9375,-0.22698 -1.25,-0.50439 z"
         id="path46" />
      <path
         style="fill:#686868;fill-opacity:1"
         d="m 765.76166,105.29274 c 1.24391,-0.23919 3.04391,-0.23011 4,0.0202 0.95609,0.25029 -0.0617,0.446 -2.26166,0.4349 -2.2,-0.0111 -2.98225,-0.21589 -1.73834,-0.45508 z"
         id="path45" />
      <path
         style="fill:#676767;fill-opacity:1"
         d="m 760.26903,105.30701 c 0.97297,-0.25354 2.32297,-0.23687 3,0.037 0.67703,0.27393 -0.11903,0.48137 -1.76903,0.46099 -1.65,-0.0204 -2.20394,-0.2445 -1.23097,-0.49804 z"
         id="path44" />
      <path
         style="fill:#666666;fill-opacity:1"
         d="m 754.25,105.31067 c 0.9625,-0.25152 2.5375,-0.25152 3.5,0 0.9625,0.25153 0.175,0.45733 -1.75,0.45733 -1.925,0 -2.7125,-0.2058 -1.75,-0.45733 z"
         id="path43" />
      <path
         style="fill:#636363;fill-opacity:1"
         d="m 1126.75,128.2766 c 1.7875,-0.22182 4.7125,-0.22182 6.5,0 1.7875,0.22183 0.325,0.40333 -3.25,0.40333 -3.575,0 -5.0375,-0.1815 -3.25,-0.40333 z m -522,-1 c 1.7875,-0.22182 4.7125,-0.22182 6.5,0 1.7875,0.22183 0.325,0.40333 -3.25,0.40333 -3.575,0 -5.0375,-0.1815 -3.25,-0.40333 z m 140.0625,-21.95971 c 0.72187,-0.28887 1.58438,-0.25335 1.91667,0.0789 0.33229,0.3323 -0.25834,0.56864 -1.3125,0.52522 -1.16495,-0.048 -1.4019,-0.28494 -0.60417,-0.60416 z"
         id="path41" />
      <path
         style="fill:#626262;fill-opacity:1"
         d="m 1139.75,128.26779 c 2.3375,-0.21053 6.1625,-0.21053 8.5,0 2.3375,0.21054 0.425,0.3828 -4.25,0.3828 -4.675,0 -6.5875,-0.17226 -4.25,-0.3828 z m -525,-0.93007 c 0.6875,-0.27741 1.8125,-0.27741 2.5,0 0.6875,0.27741 0.125,0.50439 -1.25,0.50439 -1.375,0 -1.9375,-0.22698 -1.25,-0.50439 z m 7,-0.0611 c 1.7875,-0.22182 4.7125,-0.22182 6.5,0 1.7875,0.22183 0.325,0.40333 -3.25,0.40333 -3.575,0 -5.0375,-0.1815 -3.25,-0.40333 z m 116.51903,-21.96959 c 0.97297,-0.25354 2.32297,-0.23687 3,0.037 0.67703,0.27393 -0.11903,0.48137 -1.76903,0.46099 -1.65,-0.0204 -2.20394,-0.2445 -1.23097,-0.49804 z"
         id="path40" />
      <path
         style="fill:#616161;fill-opacity:1"
         d="m 1155.7764,128.2665 c 2.3521,-0.21124 5.9521,-0.20827 8,0.007 2.048,0.21487 0.1236,0.38771 -4.2764,0.38408 -4.4,-0.004 -6.0756,-0.17944 -3.7236,-0.39069 z M 634.25,127.27153 c 2.0625,-0.21574 5.4375,-0.21574 7.5,0 2.0625,0.21575 0.375,0.39226 -3.75,0.39226 -4.125,0 -5.8125,-0.17651 -3.75,-0.39226 z m 97.51166,-21.97879 c 1.24391,-0.23919 3.04391,-0.23011 4,0.0202 0.95609,0.25029 -0.0617,0.446 -2.26166,0.4349 -2.2,-0.0111 -2.98225,-0.21589 -1.73834,-0.45508 z"
         id="path39" />
      <path
         style="fill:#606060;fill-opacity:1"
         d="m 1169.25,128.28375 c 1.5125,-0.22913 3.9875,-0.22913 5.5,0 1.5125,0.22912 0.275,0.41659 -2.75,0.41659 -3.025,0 -4.2625,-0.18747 -2.75,-0.41659 z m -522,-1 c 1.5125,-0.22913 3.9875,-0.22913 5.5,0 1.5125,0.22912 0.275,0.41659 -2.75,0.41659 -3.025,0 -4.2625,-0.18747 -2.75,-0.41659 z m 80.5625,-21.96686 c 0.72187,-0.28887 1.58438,-0.25335 1.91667,0.0789 0.33229,0.3323 -0.25834,0.56864 -1.3125,0.52522 -1.16495,-0.048 -1.4019,-0.28494 -0.60417,-0.60416 z"
         id="path38" />
      <path
         style="fill:#5e5e5e;fill-opacity:1"
         d="m 1180.75,128.26779 c 2.3375,-0.21053 6.1625,-0.21053 8.5,0 2.3375,0.21054 0.425,0.3828 -4.25,0.3828 -4.675,0 -6.5875,-0.17226 -4.25,-0.3828 z m -521.46983,-1.00406 c 2.6291,-0.20668 6.6791,-0.20418 9,0.006 2.32091,0.20972 0.16983,0.37882 -4.78017,0.37577 -4.95,-0.003 -6.84892,-0.17464 -4.21983,-0.38131 z m 63.98886,-21.95672 c 0.97297,-0.25354 2.32297,-0.23687 3,0.037 0.67703,0.27393 -0.11903,0.48137 -1.76903,0.46099 -1.65,-0.0204 -2.20394,-0.2445 -1.23097,-0.49804 z"
         id="path37" />
      <path
         style="fill:#5d5d5d;fill-opacity:1"
         d="m 1194.75,128.29427 c 1.2375,-0.23836 3.2625,-0.23836 4.5,0 1.2375,0.23835 0.225,0.43337 -2.25,0.43337 -2.475,0 -3.4875,-0.19502 -2.25,-0.43337 z m -521,-1 c 1.2375,-0.23836 3.2625,-0.23836 4.5,0 1.2375,0.23835 0.225,0.43337 -2.25,0.43337 -2.475,0 -3.4875,-0.19502 -2.25,-0.43337 z m 43.5,-21.9836 c 0.9625,-0.25152 2.5375,-0.25152 3.5,0 0.9625,0.25153 0.175,0.45733 -1.75,0.45733 -1.925,0 -2.7125,-0.2058 -1.75,-0.45733 z"
         id="path36" />
      <path
         style="fill:#5c5c5c;fill-opacity:1"
         d="m 1065,648.5 c 4.6507,-4.675 8.6808,-8.5 8.9558,-8.5 0.275,0 -3.3051,3.825 -7.9558,8.5 -4.6507,4.675 -8.6808,8.5 -8.9558,8.5 -0.275,0 3.3051,-3.825 7.9558,-8.5 z m 138.7277,-520.22173 c 1.7752,-0.22091 4.9252,-0.22454 7,-0.008 2.0748,0.21648 0.6223,0.39722 -3.2277,0.40166 -3.85,0.004 -5.5475,-0.17268 -3.7723,-0.39359 z M 682.75,127.2766 c 1.7875,-0.22182 4.7125,-0.22182 6.5,0 1.7875,0.22183 0.325,0.40333 -3.25,0.40333 -3.575,0 -5.0375,-0.1815 -3.25,-0.40333 z"
         id="path35" />
      <path
         style="fill:#5b5b5b;fill-opacity:1"
         d="m 1216.75,128.2766 c 1.7875,-0.22182 4.7125,-0.22182 6.5,0 1.7875,0.22183 0.325,0.40333 -3.25,0.40333 -3.575,0 -5.0375,-0.1815 -3.25,-0.40333 z m -522,-1 c 1.7875,-0.22182 4.7125,-0.22182 6.5,0 1.7875,0.22183 0.325,0.40333 -3.25,0.40333 -3.575,0 -5.0375,-0.1815 -3.25,-0.40333 z m 15,-21.93888 c 0.6875,-0.27741 1.8125,-0.27741 2.5,0 0.6875,0.27741 0.125,0.50439 -1.25,0.50439 -1.375,0 -1.9375,-0.22698 -1.25,-0.50439 z"
         id="path34" />
      <path
         style="fill:#595959;fill-opacity:1"
         d="m 1231.75,128.29427 c 1.2375,-0.23836 3.2625,-0.23836 4.5,0 1.2375,0.23835 0.225,0.43337 -2.25,0.43337 -2.475,0 -3.4875,-0.19502 -2.25,-0.43337 z m -526.9375,-0.97738 c 0.72187,-0.28887 1.58438,-0.25335 1.91667,0.0789 0.33229,0.3323 -0.25834,0.56864 -1.3125,0.52522 -1.16495,-0.048 -1.4019,-0.28494 -0.60417,-0.60416 z m 5.45125,-0.0345 c 1.52006,-0.22986 3.77006,-0.22371 5,0.0136 1.22994,0.23736 -0.0137,0.42542 -2.76375,0.41792 -2.75,-0.008 -3.75631,-0.20172 -2.23625,-0.43157 z"
         id="path33" />
      <path
         style="fill:#585858;fill-opacity:1"
         d="m 1242.75,128.2766 c 1.7875,-0.22182 4.7125,-0.22182 6.5,0 1.7875,0.22183 0.325,0.40333 -3.25,0.40333 -3.575,0 -5.0375,-0.1815 -3.25,-0.40333 z m -519.5,-0.99285 c 1.5125,-0.22913 3.9875,-0.22913 5.5,0 1.5125,0.22912 0.275,0.41659 -2.75,0.41659 -3.025,0 -4.2625,-0.18747 -2.75,-0.41659 z m -23.4375,-21.96686 c 0.72187,-0.28887 1.58438,-0.25335 1.91667,0.0789 0.33229,0.3323 -0.25834,0.56864 -1.3125,0.52522 -1.16495,-0.048 -1.4019,-0.28494 -0.60417,-0.60416 z"
         id="path32" />
      <path
         style="fill:#575757;fill-opacity:1"
         d="m 735.75,127.33772 c 0.6875,-0.27741 1.8125,-0.27741 2.5,0 0.6875,0.27741 0.125,0.50439 -1.25,0.50439 -1.375,0 -1.9375,-0.22698 -1.25,-0.50439 z m 453,-21 c 0.6875,-0.27741 1.8125,-0.27741 2.5,0 0.6875,0.27741 0.125,0.50439 -1.25,0.50439 -1.375,0 -1.9375,-0.22698 -1.25,-0.50439 z m -495.48097,-1.03071 c 0.97297,-0.25354 2.32297,-0.23687 3,0.037 0.67703,0.27393 -0.11903,0.48137 -1.76903,0.46099 -1.65,-0.0204 -2.20394,-0.2445 -1.23097,-0.49804 z"
         id="path31" />
      <path
         style="fill:#565656;fill-opacity:1"
         d="m 748.77643,127.2665 c 2.35204,-0.21124 5.95204,-0.20827 8,0.007 2.04796,0.21487 0.12357,0.38771 -4.27643,0.38408 -4.4,-0.004 -6.07561,-0.17944 -3.72357,-0.39069 z m 13.03607,0.0504 c 0.72187,-0.28887 1.58438,-0.25335 1.91667,0.0789 0.33229,0.3323 -0.25834,0.56864 -1.3125,0.52522 -1.16495,-0.048 -1.4019,-0.28494 -0.60417,-0.60416 z m 422.4565,-21.00988 c 0.973,-0.25354 2.323,-0.23687 3,0.037 0.6771,0.27393 -0.119,0.48137 -1.769,0.46099 -1.65,-0.0204 -2.2039,-0.2445 -1.231,-0.49804 z m -495.519,-0.9693 c 0.6875,-0.27741 1.8125,-0.27741 2.5,0 0.6875,0.27741 0.125,0.50439 -1.25,0.50439 -1.375,0 -1.9375,-0.22698 -1.25,-0.50439 z"
         id="path30" />
      <path
         style="fill:#545454;fill-opacity:1"
         d="m 766.25,127.28375 c 1.5125,-0.22913 3.9875,-0.22913 5.5,0 1.5125,0.22912 0.275,0.41659 -2.75,0.41659 -3.025,0 -4.2625,-0.18747 -2.75,-0.41659 z m 411.5,-20.94603 c 0.6875,-0.27741 1.8125,-0.27741 2.5,0 0.6875,0.27741 0.125,0.50439 -1.25,0.50439 -1.375,0 -1.9375,-0.22698 -1.25,-0.50439 z m -493.48097,-1.03071 c 0.97297,-0.25354 2.32297,-0.23687 3,0.037 0.67703,0.27393 -0.11903,0.48137 -1.76903,0.46099 -1.65,-0.0204 -2.20394,-0.2445 -1.23097,-0.49804 z"
         id="path29" />
      <path
         style="fill:#535353;fill-opacity:1"
         d="m 776.75,127.2766 c 1.7875,-0.22182 4.7125,-0.22182 6.5,0 1.7875,0.22183 0.325,0.40333 -3.25,0.40333 -3.575,0 -5.0375,-0.1815 -3.25,-0.40333 z m 12,0.0611 c 0.6875,-0.27741 1.8125,-0.27741 2.5,0 0.6875,0.27741 0.125,0.50439 -1.25,0.50439 -1.375,0 -1.9375,-0.22698 -1.25,-0.50439 z m -111,-22 c 0.6875,-0.27741 1.8125,-0.27741 2.5,0 0.6875,0.27741 0.125,0.50439 -1.25,0.50439 -1.375,0 -1.9375,-0.22698 -1.25,-0.50439 z"
         id="path28" />
      <path
         style="fill:#525252;fill-opacity:1"
         d="m 850.17942,582.25084 c 14.67368,-0.15578 38.97368,-0.15591 54,-2.9e-4 15.02632,0.15563 3.02058,0.28309 -26.67942,0.28324 -29.7,1.6e-4 -41.99426,-0.12717 -27.32058,-0.28295 z M 985.36996,501 c 0,-5.775 0.16528,-8.1375 0.36728,-5.25 0.202,2.8875 0.202,7.6125 0,10.5 -0.202,2.8875 -0.36728,0.525 -0.36728,-5.25 z M 1169.75,106.33772 c 0.6875,-0.27741 1.8125,-0.27741 2.5,0 0.6875,0.27741 0.125,0.50439 -1.25,0.50439 -1.375,0 -1.9375,-0.22698 -1.25,-0.50439 z m -496,-1 c 0.6875,-0.27741 1.8125,-0.27741 2.5,0 0.6875,0.27741 0.125,0.50439 -1.25,0.50439 -1.375,0 -1.9375,-0.22698 -1.25,-0.50439 z"
         id="path27" />
      <path
         style="fill:#515151;fill-opacity:1"
         d="m 796.75,127.33772 c 0.6875,-0.27741 1.8125,-0.27741 2.5,0 0.6875,0.27741 0.125,0.50439 -1.25,0.50439 -1.375,0 -1.9375,-0.22698 -1.25,-0.50439 z m 6.5,-0.054 c 1.5125,-0.22913 3.9875,-0.22913 5.5,0 1.5125,0.22912 0.275,0.41659 -2.75,0.41659 -3.025,0 -4.2625,-0.18747 -2.75,-0.41659 z m 360.5117,-20.99101 c 1.2439,-0.23919 3.0439,-0.23011 4,0.0202 0.956,0.25029 -0.062,0.446 -2.2617,0.4349 -2.2,-0.0111 -2.9823,-0.21589 -1.7383,-0.45508 z M 668.25,105.31067 c 0.9625,-0.25152 2.5375,-0.25152 3.5,0 0.9625,0.25153 0.175,0.45733 -1.75,0.45733 -1.925,0 -2.7125,-0.2058 -1.75,-0.45733 z"
         id="path26" />
      <path
         style="fill:#4f4f4f;fill-opacity:1"
         d="m 814.75,127.26779 c 2.3375,-0.21053 6.1625,-0.21053 8.5,0 2.3375,0.21054 0.425,0.3828 -4.25,0.3828 -4.675,0 -6.5875,-0.17226 -4.25,-0.3828 z"
         id="path25" />
      <path
         style="fill:#4e4e4e;fill-opacity:1"
         d="m 828.25,127.31067 c 0.9625,-0.25152 2.5375,-0.25152 3.5,0 0.9625,0.25153 0.175,0.45733 -1.75,0.45733 -1.925,0 -2.7125,-0.2058 -1.75,-0.45733 z m 6.5625,0.006 c 0.72187,-0.28887 1.58438,-0.25335 1.91667,0.0789 0.33229,0.3323 -0.25834,0.56864 -1.3125,0.52522 -1.16495,-0.048 -1.4019,-0.28494 -0.60417,-0.60416 z m 322.4565,-21.00988 c 0.973,-0.25354 2.323,-0.23687 3,0.037 0.6771,0.27393 -0.119,0.48137 -1.769,0.46099 -1.65,-0.0204 -2.2039,-0.2445 -1.231,-0.49804 z m -495.4565,-0.99012 c 0.72187,-0.28887 1.58438,-0.25335 1.91667,0.0789 0.33229,0.3323 -0.25834,0.56864 -1.3125,0.52522 -1.16495,-0.048 -1.4019,-0.28494 -0.60417,-0.60416 z"
         id="path24" />
      <path
         style="fill:#4d4d4d;fill-opacity:1"
         d="m 839.7277,127.27827 c 1.77523,-0.22091 4.92523,-0.22454 7,-0.008 2.07476,0.21648 0.6223,0.39722 -3.2277,0.40166 -3.85,0.004 -5.54754,-0.17268 -3.7723,-0.39359 z m 311.5223,-20.9676 c 0.9625,-0.25152 2.5375,-0.25152 3.5,0 0.9625,0.25153 0.175,0.45733 -1.75,0.45733 -1.925,0 -2.7125,-0.2058 -1.75,-0.45733 z m -492.4375,-0.99378 c 0.72187,-0.28887 1.58438,-0.25335 1.91667,0.0789 0.33229,0.3323 -0.25834,0.56864 -1.3125,0.52522 -1.16495,-0.048 -1.4019,-0.28494 -0.60417,-0.60416 z"
         id="path23" />
      <path
         style="fill:#4c4c4c;fill-opacity:1"
         d="m 853.75,127.29427 c 1.2375,-0.23836 3.2625,-0.23836 4.5,0 1.2375,0.23835 0.225,0.43337 -2.25,0.43337 -2.475,0 -3.4875,-0.19502 -2.25,-0.43337 z m 9,0.0435 c 0.6875,-0.27741 1.8125,-0.27741 2.5,0 0.6875,0.27741 0.125,0.50439 -1.25,0.50439 -1.375,0 -1.9375,-0.22698 -1.25,-0.50439 z m -210,-22 c 0.6875,-0.27741 1.8125,-0.27741 2.5,0 0.6875,0.27741 0.125,0.50439 -1.25,0.50439 -1.375,0 -1.9375,-0.22698 -1.25,-0.50439 z"
         id="path22" />
      <path
         style="fill:#4a4a4a;fill-opacity:1"
         d="m 831.82884,941.25006 c 44.73086,-0.14402 117.63086,-0.144 162,4e-5 44.36916,0.14404 7.77116,0.26188 -81.32884,0.26186 -89.1,-2e-5 -125.40202,-0.11787 -80.67116,-0.2619 z M 850.75,692.25049 c 17.7375,-0.15301 46.7625,-0.15301 64.5,0 17.7375,0.15301 3.225,0.27821 -32.25,0.27821 -35.475,0 -49.9875,-0.1252 -32.25,-0.27821 z m 552.519,-514.94348 c 0.973,-0.25354 2.323,-0.23687 3,0.0371 0.6771,0.27393 -0.119,0.48137 -1.769,0.46099 -1.65,-0.0204 -2.2039,-0.2445 -1.231,-0.49804 z M 868.25,127.28375 c 1.5125,-0.22913 3.9875,-0.22913 5.5,0 1.5125,0.22912 0.275,0.41659 -2.75,0.41659 -3.025,0 -4.2625,-0.18747 -2.75,-0.41659 z m 274.5625,-20.96686 c 0.7219,-0.28887 1.5844,-0.25335 1.9167,0.0789 0.3323,0.3323 -0.2584,0.56864 -1.3125,0.52522 -1.165,-0.048 -1.4019,-0.28494 -0.6042,-0.60416 z m -495,-1 c 0.72187,-0.28887 1.58438,-0.25335 1.91667,0.0789 0.33229,0.3323 -0.25834,0.56864 -1.3125,0.52522 -1.16495,-0.048 -1.4019,-0.28494 -0.60417,-0.60416 z"
         id="path21" />
      <path
         style="fill:#494949;fill-opacity:1"
         d="m 878.25,127.28375 c 1.5125,-0.22913 3.9875,-0.22913 5.5,0 1.5125,0.22912 0.275,0.41659 -2.75,0.41659 -3.025,0 -4.2625,-0.18747 -2.75,-0.41659 z m 260.5,-20.94603 c 0.6875,-0.27741 1.8125,-0.27741 2.5,0 0.6875,0.27741 0.125,0.50439 -1.25,0.50439 -1.375,0 -1.9375,-0.22698 -1.25,-0.50439 z m -495,-1 c 0.6875,-0.27741 1.8125,-0.27741 2.5,0 0.6875,0.27741 0.125,0.50439 -1.25,0.50439 -1.375,0 -1.9375,-0.22698 -1.25,-0.50439 z"
         id="path20" />
      <path
         style="fill:#484848;fill-opacity:1"
         d="m 742.25,973.25006 c 52.1125,-0.14311 137.3875,-0.14311 189.5,0 52.1125,0.14312 9.475,0.26021 -94.75,0.26021 -104.225,0 -146.8625,-0.11709 -94.75,-0.26021 z m 144.5,-845.91234 c 0.6875,-0.27741 1.8125,-0.27741 2.5,0 0.6875,0.27741 0.125,0.50439 -1.25,0.50439 -1.375,0 -1.9375,-0.22698 -1.25,-0.50439 z m 6.5,-0.054 c 1.5125,-0.22913 3.9875,-0.22913 5.5,0 1.5125,0.22912 0.275,0.41659 -2.75,0.41659 -3.025,0 -4.2625,-0.18747 -2.75,-0.41659 z m 242.5625,-20.96686 c 0.7219,-0.28887 1.5844,-0.25335 1.9167,0.0789 0.3323,0.3323 -0.2584,0.56864 -1.3125,0.52522 -1.165,-0.048 -1.4019,-0.28494 -0.6042,-0.60416 z"
         id="path19" />
      <path
         style="fill:#474747;fill-opacity:1"
         d="m 905.25,127.28375 c 1.5125,-0.22913 3.9875,-0.22913 5.5,0 1.5125,0.22912 0.275,0.41659 -2.75,0.41659 -3.025,0 -4.2625,-0.18747 -2.75,-0.41659 z m 226.5,-20.94603 c 0.6875,-0.27741 1.8125,-0.27741 2.5,0 0.6875,0.27741 0.125,0.50439 -1.25,0.50439 -1.375,0 -1.9375,-0.22698 -1.25,-0.50439 z m -496,-1 c 0.6875,-0.27741 1.8125,-0.27741 2.5,0 0.6875,0.27741 0.125,0.50439 -1.25,0.50439 -1.375,0 -1.9375,-0.22698 -1.25,-0.50439 z"
         id="path18" />
      <path
         style="fill:#454545;fill-opacity:1"
         d="m 917.25,127.26496 c 2.6125,-0.206 6.8875,-0.206 9.5,0 2.6125,0.206 0.475,0.37454 -4.75,0.37454 -5.225,0 -7.3625,-0.16854 -4.75,-0.37454 z m 210.019,-20.95795 c 0.973,-0.25354 2.323,-0.23687 3,0.037 0.6771,0.27393 -0.119,0.48137 -1.769,0.46099 -1.65,-0.0204 -2.2039,-0.2445 -1.231,-0.49804 z M 630.25,105.31067 c 0.9625,-0.25152 2.5375,-0.25152 3.5,0 0.9625,0.25153 0.175,0.45733 -1.75,0.45733 -1.925,0 -2.7125,-0.2058 -1.75,-0.45733 z"
         id="path17" />
      <path
         style="fill:#444444;fill-opacity:1"
         d="m 936.76166,127.29274 c 1.24391,-0.23919 3.04391,-0.23011 4,0.0202 0.95609,0.25029 -0.0617,0.446 -2.26166,0.4349 -2.2,-0.0111 -2.98225,-0.21589 -1.73834,-0.45508 z"
         id="path16" />
      <path
         style="fill:#434343;fill-opacity:1"
         d="m 943.75,127.29427 c 1.2375,-0.23836 3.2625,-0.23836 4.5,0 1.2375,0.23835 0.225,0.43337 -2.25,0.43337 -2.475,0 -3.4875,-0.19502 -2.25,-0.43337 z"
         id="path15" />
      <path
         style="fill:#424242;fill-opacity:1"
         d="m 957.25,127.27153 c 2.0625,-0.21574 5.4375,-0.21574 7.5,0 2.0625,0.21575 0.375,0.39226 -3.75,0.39226 -4.125,0 -5.8125,-0.17651 -3.75,-0.39226 z m 157.5625,-20.95464 c 0.7219,-0.28887 1.5844,-0.25335 1.9167,0.0789 0.3323,0.3323 -0.2584,0.56864 -1.3125,0.52522 -1.165,-0.048 -1.4019,-0.28494 -0.6042,-0.60416 z m -495.05084,-1.02415 c 1.24391,-0.23919 3.04391,-0.23011 4,0.0202 0.95609,0.25029 -0.0617,0.446 -2.26166,0.4349 -2.2,-0.0111 -2.98225,-0.21589 -1.73834,-0.45508 z"
         id="path14" />
      <path
         style="fill:#404040;fill-opacity:1"
         d="m 970.25,127.28375 c 1.5125,-0.22913 3.9875,-0.22913 5.5,0 1.5125,0.22912 0.275,0.41659 -2.75,0.41659 -3.025,0 -4.2625,-0.18747 -2.75,-0.41659 z m 140.5,-20.94603 c 0.6875,-0.27741 1.8125,-0.27741 2.5,0 0.6875,0.27741 0.125,0.50439 -1.25,0.50439 -1.375,0 -1.9375,-0.22698 -1.25,-0.50439 z m -494.9375,-1.02083 c 0.72187,-0.28887 1.58438,-0.25335 1.91667,0.0789 0.33229,0.3323 -0.25834,0.56864 -1.3125,0.52522 -1.16495,-0.048 -1.4019,-0.28494 -0.60417,-0.60416 z"
         id="path13" />
      <path
         style="fill:#3f3f3f;fill-opacity:1"
         d="m 868.25,468.25114 c 11.4125,-0.16044 30.0875,-0.16044 41.5,0 11.4125,0.16044 2.075,0.29172 -20.75,0.29172 -22.825,0 -32.1625,-0.13128 -20.75,-0.29172 z M 978.8125,127.31689 c 0.72187,-0.28887 1.58438,-0.25335 1.91667,0.0789 0.33229,0.3323 -0.25834,0.56864 -1.3125,0.52522 -1.16495,-0.048 -1.4019,-0.28494 -0.60417,-0.60416 z m 6.9375,0.0208 c 0.6875,-0.27741 1.8125,-0.27741 2.5,0 0.6875,0.27741 0.125,0.50439 -1.25,0.50439 -1.375,0 -1.9375,-0.22698 -1.25,-0.50439 z m 122.0625,-21.02083 c 0.7219,-0.28887 1.5844,-0.25335 1.9167,0.0789 0.3323,0.3323 -0.2584,0.56864 -1.3125,0.52522 -1.165,-0.048 -1.4019,-0.28494 -0.6042,-0.60416 z m -495,-1 c 0.72187,-0.28887 1.58438,-0.25335 1.91667,0.0789 0.33229,0.3323 -0.25834,0.56864 -1.3125,0.52522 -1.16495,-0.048 -1.4019,-0.28494 -0.60417,-0.60416 z"
         id="path12" />
      <path
         style="fill:#3e3e3e;fill-opacity:1"
         d="m 804.82808,372.25009 c 38.13045,-0.14511 100.23045,-0.14508 138,5e-5 37.76956,0.14513 6.57192,0.26385 -69.32808,0.26382 -75.9,-2e-5 -106.80236,-0.11877 -68.67192,-0.26387 z M 995.25,127.28375 c 1.5125,-0.22913 3.9875,-0.22913 5.5,0 1.5125,0.22912 0.275,0.41659 -2.75,0.41659 -3.025,0 -4.2625,-0.18747 -2.75,-0.41659 z m -521.5,-1.00715 c 1.7875,-0.22182 4.7125,-0.22182 6.5,0 1.7875,0.22183 0.325,0.40333 -3.25,0.40333 -3.575,0 -5.0375,-0.1815 -3.25,-0.40333 z m 630,-19.93888 c 0.6875,-0.27741 1.8125,-0.27741 2.5,0 0.6875,0.27741 0.125,0.50439 -1.25,0.50439 -1.375,0 -1.9375,-0.22698 -1.25,-0.50439 z m -497,-1 c 0.6875,-0.27741 1.8125,-0.27741 2.5,0 0.6875,0.27741 0.125,0.50439 -1.25,0.50439 -1.375,0 -1.9375,-0.22698 -1.25,-0.50439 z"
         id="path11" />
      <path
         style="fill:#3d3d3d;fill-opacity:1"
         d="m 1008.75,127.29427 c 1.2375,-0.23836 3.2625,-0.23836 4.5,0 1.2375,0.23835 0.225,0.43337 -2.25,0.43337 -2.475,0 -3.4875,-0.19502 -2.25,-0.43337 z m -522,-1 c 1.2375,-0.23836 3.2625,-0.23836 4.5,0 1.2375,0.23835 0.225,0.43337 -2.25,0.43337 -2.475,0 -3.4875,-0.19502 -2.25,-0.43337 z m 613,-19.95655 c 0.6875,-0.27741 1.8125,-0.27741 2.5,0 0.6875,0.27741 0.125,0.50439 -1.25,0.50439 -1.375,0 -1.9375,-0.22698 -1.25,-0.50439 z"
         id="path10" />
      <path
         style="fill:#3b3b3b;fill-opacity:1"
         d="m 1021.7277,127.27827 c 1.7752,-0.22091 4.9252,-0.22454 7,-0.008 2.0748,0.21648 0.6223,0.39722 -3.2277,0.40166 -3.85,0.004 -5.5475,-0.17268 -3.7723,-0.39359 z M 499.75,126.2766 c 1.7875,-0.22182 4.7125,-0.22182 6.5,0 1.7875,0.22183 0.325,0.40333 -3.25,0.40333 -3.575,0 -5.0375,-0.1815 -3.25,-0.40333 z m 596,-19.93888 c 0.6875,-0.27741 1.8125,-0.27741 2.5,0 0.6875,0.27741 0.125,0.50439 -1.25,0.50439 -1.375,0 -1.9375,-0.22698 -1.25,-0.50439 z m -495,-1 c 0.6875,-0.27741 1.8125,-0.27741 2.5,0 0.6875,0.27741 0.125,0.50439 -1.25,0.50439 -1.375,0 -1.9375,-0.22698 -1.25,-0.50439 z"
         id="path9" />
      <path
         style="fill:#3a3a3a;fill-opacity:1"
         d="m 1064,648.5 c 4.6507,-4.675 8.6808,-8.5 8.9558,-8.5 0.275,0 -3.3051,3.825 -7.9558,8.5 -4.6507,4.675 -8.6808,8.5 -8.9558,8.5 -0.275,0 3.3051,-3.825 7.9558,-8.5 z m -29.25,-521.2234 c 1.7875,-0.22182 4.7125,-0.22182 6.5,0 1.7875,0.22183 0.325,0.40333 -3.25,0.40333 -3.575,0 -5.0375,-0.1815 -3.25,-0.40333 z m -523.0223,-0.99833 c 1.77523,-0.22091 4.92523,-0.22454 7,-0.008 2.07476,0.21648 0.6223,0.39722 -3.2277,0.40166 -3.85,0.004 -5.54754,-0.17268 -3.7723,-0.39359 z"
         id="path8" />
      <path
         style="fill:#393939;fill-opacity:1"
         d="m 1045.75,127.29427 c 1.2375,-0.23836 3.2625,-0.23836 4.5,0 1.2375,0.23835 0.225,0.43337 -2.25,0.43337 -2.475,0 -3.4875,-0.19502 -2.25,-0.43337 z m -522,-1 c 1.2375,-0.23836 3.2625,-0.23836 4.5,0 1.2375,0.23835 0.225,0.43337 -2.25,0.43337 -2.475,0 -3.4875,-0.19502 -2.25,-0.43337 z m 565.0625,-19.97738 c 0.7219,-0.28887 1.5844,-0.25335 1.9167,0.0789 0.3323,0.3323 -0.2584,0.56864 -1.3125,0.52522 -1.165,-0.048 -1.4019,-0.28494 -0.6042,-0.60416 z"
         id="path7" />
      <path
         style="fill:#383838;fill-opacity:1"
         d="m 1055.75,127.26779 c 2.3375,-0.21053 6.1625,-0.21053 8.5,0 2.3375,0.21054 0.425,0.3828 -4.25,0.3828 -4.675,0 -6.5875,-0.17226 -4.25,-0.3828 z m -522,-1 c 2.3375,-0.21053 6.1625,-0.21053 8.5,0 2.3375,0.21054 0.425,0.3828 -4.25,0.3828 -4.675,0 -6.5875,-0.17226 -4.25,-0.3828 z m 549.5,-19.95712 c 0.9625,-0.25152 2.5375,-0.25152 3.5,0 0.9625,0.25153 0.175,0.45733 -1.75,0.45733 -1.925,0 -2.7125,-0.2058 -1.75,-0.45733 z m -493.98097,-1.00366 c 0.97297,-0.25354 2.32297,-0.23687 3,0.037 0.67703,0.27393 -0.11903,0.48137 -1.76903,0.46099 -1.65,-0.0204 -2.20394,-0.2445 -1.23097,-0.49804 z"
         id="path6" />
      <path
         style="fill:#363636;fill-opacity:1"
         d="m 1070.7679,127.27527 c 1.7974,-0.22256 4.4974,-0.21797 6,0.0102 1.5027,0.22818 0.032,0.41027 -3.2679,0.40466 -3.3,-0.006 -4.5294,-0.1923 -2.7321,-0.41486 z M 548.25,126.28375 c 1.5125,-0.22913 3.9875,-0.22913 5.5,0 1.5125,0.22912 0.275,0.41659 -2.75,0.41659 -3.025,0 -4.2625,-0.18747 -2.75,-0.41659 z m 36.5,-20.94603 c 0.6875,-0.27741 1.8125,-0.27741 2.5,0 0.6875,0.27741 0.125,0.50439 -1.25,0.50439 -1.375,0 -1.9375,-0.22698 -1.25,-0.50439 z"
         id="path5" />
      <path
         style="fill:#353535;fill-opacity:1"
         d="m 1082.25,127.27153 c 2.0625,-0.21574 5.4375,-0.21574 7.5,0 2.0625,0.21575 0.375,0.39226 -3.75,0.39226 -4.125,0 -5.8125,-0.17651 -3.75,-0.39226 z M 559.77643,126.2665 c 2.35204,-0.21124 5.95204,-0.20827 8,0.007 2.04796,0.21487 0.12357,0.38771 -4.27643,0.38408 -4.4,-0.004 -6.07561,-0.17944 -3.72357,-0.39069 z m 518.03607,-19.94961 c 0.7219,-0.28887 1.5844,-0.25335 1.9167,0.0789 0.3323,0.3323 -0.2584,0.56864 -1.3125,0.52522 -1.165,-0.048 -1.4019,-0.28494 -0.6042,-0.60416 z m -496,-1 c 0.72187,-0.28887 1.58438,-0.25335 1.91667,0.0789 0.33229,0.3323 -0.25834,0.56864 -1.3125,0.52522 -1.16495,-0.048 -1.4019,-0.28494 -0.60417,-0.60416 z"
         id="path4" />
      <path
         style="fill:#1a237e;stroke:none;stroke-width:2.12405"
         sodipodi:type="inkscape:offset"
         inkscape:radius="0"
         inkscape:original="M 441.75391 64.783203 L 438.60938 79.316406 C 430.659 116.04831 223.14351 1201.3067 220.74609 1218.6914 L 219.35742 1228.7617 L 228.22266 1228.7285 C 233.09954 1228.7106 238.14302 1227.9954 239.42969 1227.1387 C 240.71637 1226.2819 285.92037 971.32023 349.65234 662.67383 C 423.21246 306.43083 484.1943 84.820502 487.67188 84.925781 L 767.75391 93.40625 L 837.71289 86.46875 C 1248.1978 85.840268 1230.9299 85.397364 1277.2852 97.722656 C 1288.337 100.6612 1297.8608 102.56114 1298.4512 101.94531 C 1299.0413 101.32948 1298.4582 100.82617 1297.1543 100.82617 C 1295.8504 100.82617 1295.0116 99.735105 1295.291 98.400391 C 1295.5705 97.065676 1290.7501 93.88905 1284.5781 91.341797 C 1253.1755 78.381561 1205.7122 69.664746 1151.5234 66.90625 C 1130.2882 65.825263 961.90255 64.904548 777.33398 64.861328 L 441.75391 64.783203 z "
         xlink:href="#path83"
         id="path87"
         inkscape:href="#path83"
         d="M 451.82031,62.660156 448.5332,77.21875 C 440.22295,114.01768 223.31452,1201.2555 220.80859,1218.6719 l -1.45117,10.0898 9.26758,-0.033 c 5.09761,-0.018 10.36798,-0.7335 11.71289,-1.5918 1.34492,-0.8583 48.59624,-256.28646 115.21289,-565.49608 C 432.44043,304.74755 496.18143,82.732421 499.81641,82.837891 l 292.75976,8.496093 73.12695,-6.949218 c 429.06458,-0.62963 411.01148,-1.074343 459.46488,11.273437 11.5521,2.94391 21.5099,4.849377 22.1269,4.232422 0.6169,-0.61695 0.01,-1.123047 -1.3574,-1.123047 -1.363,0 -2.2393,-1.092537 -1.9473,-2.429687 0.2921,-1.33715 -4.7459,-4.520366 -11.1972,-7.072266 -32.824,-12.983887 -82.4366,-21.716939 -139.0782,-24.480469 -22.1963,-1.08296 -198.20233,-2.003575 -391.12496,-2.046875 z"
         transform="translate(-6.372142,2.1240435)" />
      <path
         style="fill:#1a237e;stroke:none;stroke-width:2.07566"
         d="M 220.74538,1218.6906 C 223.1428,1201.3059 430.6589,116.04757 438.60928,79.315664 l 3.14541,-14.532211 335.57919,0.07866 c 184.56857,0.04322 352.95342,0.963113 374.18862,2.0441 54.1888,2.758496 101.6526,11.47515 133.0552,24.435386 6.172,2.547253 10.9932,5.723396 10.7137,7.058111 -0.2794,1.334714 0.5588,2.42675 1.8627,2.42675 1.3039,0 1.8878,0.50387 1.2977,1.1197 -0.5904,0.61583 -10.1156,-1.28457 -21.1674,-4.223116 C 1230.9291,85.397752 1248.1986,85.839916 837.71369,86.468398 L 767.75342,93.405839 487.67206,84.925125 C 484.19448,84.819846 423.21254,306.4308 349.65242,662.6738 c -63.73197,308.6464 -108.93571,563.6082 -110.22239,564.465 -1.28667,0.8567 -6.32956,1.5723 -11.20644,1.5902 l -8.86702,0.033 z"
         id="path83"
         sodipodi:nodetypes="sscsssssssscsssccs" />
      <path
         id="path84"
         style="fill:#1a237e;stroke:none;stroke-width:2.12405"
         sodipodi:type="inkscape:offset"
         inkscape:radius="37.638222"
         inkscape:original="M 808.49609 478.55273 L 805.94727 491.50781 C 804.54553 498.63272 802.5987 504.46094 801.61914 504.46094 C 800.63957 504.46094 800.29892 505.66405 800.86328 507.13477 C 801.42765 508.6055 798.52954 526.4498 794.42383 546.78906 C 790.31812 567.12832 786.95898 585.04312 786.95898 586.59766 C 786.95898 591.25162 885.84308 590.60741 900.91797 585.85547 C 923.65111 578.68947 933.08864 566.0489 939.94141 533.58594 C 945.62568 506.65833 945.37879 501.77215 937.89453 493.24805 C 927.8618 481.8214 921.23318 480.6241 861.98047 479.53516 L 808.49609 478.55273 z "
         d="m 809.1875,440.91992 a 37.641986,37.641986 0 0 0 -37.62109,30.36719 l -2.54883,12.95508 c -0.31726,1.61261 -0.57255,2.45469 -0.78906,3.24218 -1.72092,2.57648 -3.11171,5.14531 -3.78321,7.51954 -1.5875,5.61293 -1.86819,10.21033 -1.52148,14.21875 -0.19168,1.37757 -0.33595,2.51416 -0.67969,4.63086 -1.05774,6.51335 -2.74455,15.72763 -4.71484,25.48828 -2.08302,10.31903 -3.97295,20.00281 -5.3711,27.45898 -0.69907,3.72809 -1.27156,6.87852 -1.70898,9.43555 -0.21871,1.27851 -0.40181,2.38555 -0.57422,3.55664 -0.17241,1.17109 -0.55469,-0.1672 -0.55469,6.80469 0,16.80607 10.68285,27.18456 15.92188,30.95898 5.23903,3.77442 8.24379,4.63942 10.61523,5.45313 4.74289,1.6274 7.15368,1.90365 9.6836,2.29101 5.05982,0.77472 9.64626,1.0991 15.04882,1.39453 10.80512,0.59087 24.09011,0.78554 37.94141,0.69531 13.8513,-0.0902 28.09007,-0.47559 40.38477,-1.18359 12.29469,-0.708 18.52956,0.20668 33.31835,-4.45508 15.99429,-5.04176 33.09028,-14.99856 44.31055,-30.02734 11.22028,-15.02878 16.27899,-31.68326 20.22266,-50.36524 2.9599,-14.0217 5.35978,-23.30274 4.67773,-36.75 -0.68204,-13.44725 -9.30829,-29.40806 -15.26758,-36.19531 -7.29789,-8.31184 -25.2035,-20.0675 -41.09179,-22.9375 -15.88829,-2.87 -32.5601,-3.02556 -62.41407,-3.57422 z m -7.56836,25.90235 c -12.14745,0 -25.43512,9.56854 -32.54102,19.34179 0.0421,-0.0819 -0.002,-0.008 0.043,-0.0957 0.63152,-1.2139 1.38604,-2.95812 4.42774,-6.47852 3.04169,-3.5204 9.53099,-12.76757 28.07031,-12.76757 z m -38.2793,45.19335 c 0.21104,1.21085 0.38152,2.46454 0.6875,3.56836 -0.45269,-1.63476 -0.61419,-2.67793 -0.6875,-3.56836 z"
         transform="matrix(1.0823126,0,0,1.0227782,-4.3292059,-61.020413)" />
      <path
         style="fill:none;stroke:none;stroke-width:2.12405"
         d="m 169.85698,1311.0683 c 8.14083,-36.1533 32.38664,-156.7205 125.25917,-622.87692 60.28126,-302.57056 110.60621,-555.14636 111.83323,-561.27954 l 2.23095,-11.15125 350.84825,0.0722 c 192.96653,0.0397 371.39842,0.95397 396.51532,2.03168 66.2865,2.84421 102.5658,10.22646 142.3111,28.95797 19.6196,9.2465 47.6521,26.07237 46.0713,27.65321 -0.4314,0.4314 -10.8792,-3.97736 -23.2173,-9.79723 -26.4609,-12.48157 -51.0135,-19.97002 -84.1314,-25.65981 -23.3068,-4.0042 -37.1287,-4.14161 -416.60315,-4.14161 H 428.47792 l -1.46657,10.08923 c -0.80661,5.54907 -52.52948,266.20309 -114.93973,579.23115 -62.41025,313.02802 -113.47318,569.90502 -113.47318,570.83772 0,0.9328 69.75675,1.6959 155.015,1.6959 h 155.015 l 0.95797,-4.7791 c 0.52687,-2.6285 5.7419,-29.1526 11.58893,-58.9423 13.83813,-70.5031 94.75595,-463.59302 138.38541,-672.26108 18.80795,-89.95341 34.74848,-166.69947 35.42338,-170.54682 l 1.2271,-6.99515 151.04554,0.68172 c 148.12082,0.6685 151.36736,0.77219 167.66523,5.3557 32.4421,9.1238 54.1123,25.80892 63.4013,48.8163 13.165,32.60746 -0.9753,128.3975 -26.1342,177.04038 -26.2215,50.69727 -66.9165,75.86093 -134.0514,82.89035 -15.79197,1.65351 -46.65752,2.11655 -91.27467,1.36927 l -67.41391,-1.12908 -1.3126,7.72438 c -0.72194,4.24841 -11.73687,60.21613 -24.47763,124.37273 -12.74076,64.1566 -23.16501,117.48892 -23.16501,118.51628 0,1.0657 76.85743,1.54733 178.951,1.12143 l 178.95102,-0.74654 30.7987,-6.68206 c 69.9041,-15.16636 129.5901,-43.01219 173.8558,-81.11051 8.5019,-7.31739 15.9038,-12.85852 16.4487,-12.31366 1.7938,1.79381 -38.131,40.82473 -53.0638,51.87566 -49.3605,36.52913 -108.295,59.32605 -188.0598,72.74484 l -38.7218,6.51416 H 808.13088 606.60806 l -1.40634,7.96518 c -1.37476,7.78637 -62.04599,313.41162 -64.09162,322.85522 l -1.03524,4.7791 H 354.42785 168.78084 Z M 912.66637,584.55783 c 20.42278,-10.02909 30.46302,-31.89812 33.06855,-72.02785 1.03465,-15.93548 0.89875,-16.52116 -5.26299,-22.68289 -10.31511,-10.31512 -23.05116,-12.51916 -81.54369,-14.11165 l -52.28812,-1.42355 -1.52564,6.0475 c -1.49841,5.93958 -22.40299,109.17126 -22.40299,110.63123 0,0.41023 26.52405,0.46433 58.94232,0.12024 l 58.94232,-0.62566 z"
         id="path85"
         transform="translate(40.3569,-8.4961901)" />
      <path
         style="fill:#C41E2A;stroke:none;stroke-width:2.12405"
         d="M 257.35395,1120.9661 C 270.63557,1054.6693 322.12293,796.35856 371.7703,546.94223 421.41768,297.52596 462.55473,91.174516 463.18595,88.383476 l 1.14769,-5.07461 394.42715,1.14267 c 392.57991,1.13731 394.53471,1.16402 417.36581,5.70255 31.2211,6.20634 54.2814,14.063394 90.698,30.902394 28.4934,13.17535 31.9549,15.41848 46.2458,29.96868 27.752,28.25564 43.275,57.25044 55.0357,102.79852 5.0432,19.53198 5.1792,21.98176 4.2424,76.46571 -0.8024,46.67246 -1.917,62.45524 -6.5247,92.39607 -22.6082,146.90555 -55.6445,247.1816 -106.7157,323.9172 -14.2387,21.3941 -20.7184,29.7367 -23.0964,29.7367 -0.8015,0 -9.3868,7.4189 -19.0783,16.4863 -53.3974,49.959 -115.8672,79.7386 -202.6579,96.6077 -21.3426,4.1483 -31.536,4.4216 -195.74301,5.2473 l -173.22796,0.8712 17.39344,-86.6879 c 9.56639,-47.6783 20.53141,-103.1757 24.36667,-123.3276 l 6.97325,-36.6398 77.7057,-0.01 c 82.537,-0.01 103.33345,-1.7358 130.45591,-10.8313 39.5095,-13.2496 70.0455,-41.2332 88.5832,-81.17896 14.7399,-31.76218 27.5283,-95.44148 27.5283,-137.07608 0,-23.89976 -0.2743,-25.41419 -7.1849,-39.65709 -14.3725,-29.62237 -38.2596,-43.79909 -85.8994,-50.98022 -16.4064,-2.4731 -48.64696,-3.10056 -159.82911,-3.11054 l -139.27693,-0.0125 -5.76139,27.08161 C 690.31494,494.34693 565.65629,1098.0089 547.32283,1191.0552 l -9.93882,50.4417 H 385.29478 233.20556 Z M 899.00309,698.29216 c -10.222,-0.3894 -26.9489,-0.3894 -37.1708,0 -10.222,0.3894 -1.8586,0.7079 18.5854,0.7079 20.4439,0 28.8074,-0.3185 18.5854,-0.7079 z m 171.44611,-51.2365 c -1.3949,-1.3948 -15.8596,12.6807 -15.8596,15.4329 0,1.1761 3.8058,-1.5778 8.4572,-6.1198 4.6515,-4.542 7.9825,-8.7329 7.4024,-9.3131 z M 478.9727,132.75297 c 0,-1.16822 -1.91164,-2.12404 -4.24809,-2.12404 -2.33646,0 -4.2481,0.95582 -4.2481,2.12404 0,1.16823 1.91164,2.12405 4.2481,2.12405 2.33645,0 4.24809,-0.95582 4.24809,-2.12405 z m 10.62024,0 c 0,-1.16822 -0.89941,-2.12404 -1.99869,-2.12404 -1.09928,0 -2.58942,0.95582 -3.31143,2.12404 -0.72201,1.16823 0.1774,2.12405 1.99869,2.12405 1.82128,0 3.31143,-0.95582 3.31143,-2.12405 z m 14.86833,0 c 0,-1.16822 -1.37732,-2.12404 -3.06071,-2.12404 -1.68339,0 -3.65145,0.95582 -4.37346,2.12404 -0.722,1.16823 0.65532,2.12405 3.06071,2.12405 2.4054,0 4.37346,-0.95582 4.37346,-2.12405 z m 12.74429,0 c 0,-1.16822 -1.91165,-2.12404 -4.2481,-2.12404 -2.33645,0 -4.24809,0.95582 -4.24809,2.12404 0,1.16823 1.91164,2.12405 4.24809,2.12405 2.33645,0 4.2481,-0.95582 4.2481,-2.12405 z m 9.55821,0 c -0.72201,-1.16822 -2.21215,-2.12404 -3.31143,-2.12404 -1.09928,0 -1.99869,0.95582 -1.99869,2.12404 0,1.16823 1.49015,2.12405 3.31143,2.12405 1.82129,0 2.7207,-0.95582 1.99869,-2.12405 z m 13.80631,0 c 0,-1.16822 -1.85523,-2.12404 -4.12274,-2.12404 -2.2675,0 -4.71347,0.95582 -5.43548,2.12404 -0.74452,1.20468 1.03998,2.12405 4.12274,2.12405 2.98951,0 5.43548,-0.95582 5.43548,-2.12405 z m 11.68226,0 c -0.72201,-1.16822 -2.69006,-2.12404 -4.37346,-2.12404 -1.68339,0 -3.06071,0.95582 -3.06071,2.12404 0,1.16823 1.96806,2.12405 4.37346,2.12405 2.4054,0 3.78272,-0.95582 3.06071,-2.12405 z m 13.80631,0 c 0,-1.16822 -1.85523,-2.12404 -4.12274,-2.12404 -2.2675,0 -4.71347,0.95582 -5.43548,2.12404 -0.74452,1.20468 1.03998,2.12405 4.12274,2.12405 2.98951,0 5.43548,-0.95582 5.43548,-2.12405 z m 120.49545,0.84077 c -0.70582,-0.7058 -2.53779,-0.78126 -4.0711,-0.16768 -1.69442,0.67805 -1.19112,1.18135 1.28329,1.28327 2.23908,0.0922 3.49361,-0.40978 2.78781,-1.11559 z m 12.74428,0 c -0.70582,-0.7058 -2.53779,-0.78126 -4.0711,-0.16768 -1.69441,0.67805 -1.19112,1.18135 1.28329,1.28327 2.23909,0.0922 3.49361,-0.40978 2.78781,-1.11559 z m 27.61262,0 c -0.70582,-0.7058 -2.53779,-0.78126 -4.0711,-0.16768 -1.69441,0.67805 -1.19112,1.18135 1.28329,1.28327 2.23908,0.0922 3.49361,-0.40978 2.78781,-1.11559 z m 26.59484,-0.12343 c -1.46029,-0.58924 -3.84984,-0.58924 -5.31012,0 -1.46028,0.58923 -0.26551,1.07134 2.65506,1.07134 2.92056,0 4.11534,-0.48211 2.65506,-1.07134 z m 15.88611,0.12343 c -0.70582,-0.7058 -2.53779,-0.78126 -4.0711,-0.16768 -1.69441,0.67805 -1.19112,1.18135 1.28329,1.28327 2.23908,0.0922 3.49361,-0.40978 2.78781,-1.11559 z m 10.62024,0 c -0.7058,-0.7058 -2.53779,-0.78126 -4.0711,-0.16768 -1.69442,0.67805 -1.19112,1.18135 1.28328,1.28327 2.23909,0.0922 3.49362,-0.40978 2.78782,-1.11559 z m 25.48857,0 c -0.7058,-0.7058 -2.53779,-0.78126 -4.0711,-0.16768 -1.69442,0.67805 -1.19112,1.18135 1.28328,1.28327 2.23909,0.0922 3.49362,-0.40978 2.78782,-1.11559 z m 13.85055,-0.12343 c -1.46028,-0.58924 -3.84984,-0.58924 -5.31012,0 -1.46028,0.58923 -0.26551,1.07134 2.65506,1.07134 2.92057,0 4.11534,-0.48211 2.65506,-1.07134 z m 24.38228,0.12343 c -0.7058,-0.7058 -2.5378,-0.78126 -4.0711,-0.16768 -1.6944,0.67805 -1.1911,1.18135 1.2833,1.28327 2.2391,0.0922 3.4936,-0.40978 2.7878,-1.11559 z m 12.7443,0 c -0.7058,-0.7058 -2.5378,-0.78126 -4.0711,-0.16768 -1.6944,0.67805 -1.1911,1.18135 1.2833,1.28327 2.2391,0.0922 3.4936,-0.40978 2.7878,-1.11559 z m 14.8683,0 c -0.7058,-0.7058 -2.5378,-0.78126 -4.0711,-0.16768 -1.6944,0.67805 -1.1911,1.18135 1.2833,1.28327 2.2391,0.0922 3.4936,-0.40978 2.7878,-1.11559 z m 10.6203,0 c -0.7058,-0.7058 -2.5378,-0.78126 -4.0711,-0.16768 -1.6944,0.67805 -1.1912,1.18135 1.2833,1.28327 2.239,0.0922 3.4936,-0.40978 2.7878,-1.11559 z m 14.8683,0 c -0.7058,-0.7058 -2.5378,-0.78126 -4.0711,-0.16768 -1.6944,0.67805 -1.1911,1.18135 1.2833,1.28327 2.2391,0.0922 3.4936,-0.40978 2.7878,-1.11559 z m 11.7265,-0.12343 c -1.4603,-0.58924 -3.8498,-0.58924 -5.3101,0 -1.4603,0.58923 -0.2655,1.07134 2.655,1.07134 2.9206,0 4.1154,-0.48211 2.6551,-1.07134 z m 14.9088,0.0135 c -1.4381,-0.58182 -4.3055,-0.61724 -6.3722,-0.0787 -2.0666,0.53854 -0.89,1.01458 2.6147,1.05786 3.5046,0.0433 5.1955,-0.39733 3.7575,-0.97916 z m 20.138,-0.0709 c -2.0444,-0.53425 -5.3898,-0.53425 -7.4342,0 -2.0444,0.53426 -0.3717,0.97138 3.7171,0.97138 4.0888,0 5.7615,-0.43712 3.7171,-0.97138 z m 18.0544,0.0574 c -1.4603,-0.58924 -3.8498,-0.58924 -5.3101,0 -1.4603,0.58923 -0.2655,1.07134 2.655,1.07134 2.9206,0 4.1154,-0.48211 2.6551,-1.07134 z m 11.63805,0.12343 c -0.7058,-0.7058 -2.5378,-0.78126 -4.0711,-0.16768 -1.6944,0.67805 -1.1911,1.18135 1.2833,1.28327 2.2391,0.0922 3.4936,-0.40978 2.7878,-1.11559 z m 25.4886,0 c -0.7058,-0.7058 -2.5378,-0.78126 -4.0711,-0.16768 -1.6944,0.67805 -1.1911,1.18135 1.2833,1.28327 2.2391,0.0922 3.4936,-0.40978 2.7878,-1.11559 z m 12.74426,0 c -0.7058,-0.7058 -2.5378,-0.78126 -4.0711,-0.16768 -1.6944,0.67805 -1.1911,1.18135 1.2833,1.28327 2.2391,0.0922 3.4936,-0.40978 2.7878,-1.11559 z m 13.8505,-0.12343 c -1.4602,-0.58924 -3.8498,-0.58924 -5.3101,0 -1.4603,0.58923 -0.2655,1.07134 2.6551,1.07134 2.9206,0 4.1153,-0.48211 2.655,-1.07134 z m 12.7443,0 c -1.4602,-0.58924 -3.8498,-0.58924 -5.3101,0 -1.4603,0.58923 -0.2655,1.07134 2.6551,1.07134 2.9206,0 4.1153,-0.48211 2.655,-1.07134 z m 9.514,0.12343 c -0.7058,-0.7058 -2.5378,-0.78126 -4.0711,-0.16768 -1.6944,0.67805 -1.1911,1.18135 1.2833,1.28327 2.2391,0.0922 3.4936,-0.40978 2.7878,-1.11559 z m 13.891,-0.10996 c -1.4381,-0.58182 -4.3055,-0.61724 -6.3722,-0.0787 -2.0666,0.53854 -0.89,1.01458 2.6147,1.05786 3.5047,0.0433 5.1955,-0.39733 3.7575,-0.97916 z m 12.7039,-0.0135 c -1.4603,-0.58924 -3.8499,-0.58924 -5.3102,0 -1.4602,0.58923 -0.2655,1.07134 2.6551,1.07134 2.9206,0 4.1153,-0.48211 2.6551,-1.07134 z m 12.7847,0.0135 c -1.4381,-0.58182 -4.3055,-0.61724 -6.3722,-0.0787 -2.0666,0.53854 -0.89,1.01458 2.6147,1.05786 3.5046,0.0433 5.1955,-0.39733 3.7575,-0.97916 z M 588.89216,112.17239 c -2.0444,-0.53426 -5.38977,-0.53426 -7.43417,0 -2.04439,0.53425 -0.37171,0.97137 3.71708,0.97137 4.0888,0 5.76148,-0.43712 3.71709,-0.97137 z m 30.83911,0.0709 c -1.43805,-0.58183 -4.30551,-0.61725 -6.37215,-0.0787 -2.06663,0.53854 -0.89004,1.01458 2.61464,1.05787 3.50468,0.0433 5.19555,-0.39734 3.75751,-0.97916 z m 27.57219,-0.0135 c -1.46028,-0.58924 -3.84983,-0.58924 -5.31012,0 -1.46028,0.58924 -0.2655,1.07134 2.65506,1.07134 2.92057,0 4.11535,-0.4821 2.65506,-1.07134 z m 13.76207,0.12344 c -0.70582,-0.7058 -2.53779,-0.78126 -4.0711,-0.16769 -1.69442,0.67805 -1.19112,1.18136 1.28329,1.28328 2.23908,0.0922 3.49361,-0.40979 2.78781,-1.11559 z m 16.99238,0 c -0.70582,-0.7058 -2.53779,-0.78126 -4.0711,-0.16769 -1.69442,0.67805 -1.19112,1.18136 1.28329,1.28328 2.23908,0.0922 3.49361,-0.40979 2.78781,-1.11559 z m 408.92339,-0.12344 c -1.4602,-0.58924 -3.8498,-0.58924 -5.3101,0 -1.4603,0.58924 -0.2655,1.07134 2.6551,1.07134 2.9205,0 4.1153,-0.4821 2.655,-1.07134 z m 22.3025,-0.11464 c -3.2126,-0.48667 -8.4696,-0.48667 -11.6822,0 -3.2126,0.48667 -0.5841,0.88486 5.8411,0.88486 6.4253,0 9.0538,-0.39819 5.8411,-0.88486 z m 30.8279,0.0262 c -2.6124,-0.50416 -7.3915,-0.51721 -10.6202,-0.029 -3.2287,0.48822 -1.0912,0.90072 4.7499,0.91667 5.8411,0.016 8.4828,-0.38351 5.8703,-0.88768 z m 29.7479,0.10195 c -1.438,-0.58183 -4.3055,-0.61725 -6.3721,-0.0787 -2.0667,0.53854 -0.8901,1.01458 2.6146,1.05787 3.5047,0.0433 5.1956,-0.39734 3.7575,-0.97916 z m 17.9698,0.10996 c -0.7058,-0.7058 -2.5378,-0.78126 -4.0711,-0.16769 -1.6945,0.67805 -1.1912,1.18136 1.2832,1.28328 2.2391,0.0922 3.4937,-0.40979 2.7879,-1.11559 z"
         id="path88" />
    </g>
  </g>
</svg>
